<svg xmlns="http://www.w3.org/2000/svg" xmlns:xlink="http://www.w3.org/1999/xlink" aria-hidden="true" role="img" viewBox="0 0 129.68 161.81" preserveAspectRatio="xMidYMid meet" >
  <path class="cls-1" d="M0,.64C2.62.45,5.21.14,7.8.1,12.92,0,18,.07,23.16.08c13.58,0,20.5,6.21,21.12,19.77.54,11.46.41,23,.57,34.44v4.87c0,14,1.18,15.84,14.28,20.94a21.75,21.75,0,0,1-2.62,1.48C47.57,85,45,88.5,44.88,98c-.09,12.11,0,24.23-.07,36.34a65.3,65.3,0,0,1-.87,11.17c-1.79,9.64-7.2,14.87-17,15.47-9,.55-18,.14-26.94.15Z"/>
  <path class="cls-1" d="M129.59,161.81c-10.37-.45-20.26-.28-30-1.47-8.66-1.06-13.81-8.08-14.08-18.16-.37-13.73-.28-27.48-.21-41.22,0-9.47-3.32-16.51-12.82-19.65a3.24,3.24,0,0,1-1-.54c-.16-.13-.18-.42-.28-.67,2.45-1.33,5.11-2.39,7.3-4,5.61-4.27,6.74-10.46,6.74-17.07,0-12.49.09-25,.14-37.48a12.29,12.29,0,0,1,.06-1.49c1.07-13.92,7.59-20,21.5-20,6.25,0,12.5.17,18.74-.06,3.18-.12,4,1,4,4.06-.1,30.61-.06,61.22-.06,91.84v60.72Z"/>
</svg>