<svg xmlns="http://www.w3.org/2000/svg">
  <symbol id="logotype" viewBox="0 0 510.75 164.09" >
    <path class="cls-1" d="M510.75,113.9c-.63,2.92-1.13,5.86-1.9,8.74-4.15,15.56-13.65,26.94-28.18,33.5-25,11.3-49.83,11.32-72.85-4.91-32.07-22.59-30.11-68.4,3.37-88.82C435.37,47.66,467.3,49,489.37,65.92c11.21,8.59,18.54,19.73,20.8,33.91a5.48,5.48,0,0,0,.58,1.32ZM469.15,104c-.29-4.23-.53-11.23-1.33-18.17s-2.3-14.06-6.34-20.17c-6.4-9.67-18.88-9.91-25.21-.21a37.39,37.39,0,0,0-4.88,11.63c-4,16.73-3.69,33.7-1.9,50.66.84,8,2.22,15.88,6.8,22.74,5.43,8.13,15.47,9.13,22.06,1.91a31.15,31.15,0,0,0,5.74-9.51C468.65,131.26,468.85,119,469.15,104Z"/>
    <path class="cls-1" d="M0,.64C2.59.45,5.18.14,7.77.1,12.89,0,18,.07,23.13.08c13.58,0,20.5,6.21,21.12,19.77.54,11.46.41,23,.57,34.44,0,1.62,0,3.24,0,4.87C44.81,73.21,46,75,59.1,80.1a21.23,21.23,0,0,1-2.62,1.48C47.54,85,44.92,88.5,44.85,98c-.09,12.11,0,24.23-.07,36.34a65.06,65.06,0,0,1-.87,11.17c-1.79,9.64-7.2,14.87-17,15.47-9,.55-18,.14-26.94.15Z"/>
    <path class="cls-1" d="M129.56,161.81c-10.37-.45-20.26-.28-30-1.47-8.66-1.06-13.81-8.08-14.08-18.16-.37-13.73-.28-27.48-.21-41.22,0-9.47-3.32-16.51-12.82-19.65a3.18,3.18,0,0,1-1-.54c-.16-.13-.18-.42-.28-.67,2.45-1.33,5.11-2.39,7.3-4,5.61-4.27,6.74-10.46,6.74-17.07,0-12.49.09-25,.14-37.48,0-.5,0-1,.06-1.49C86.48,6.14,93,.07,106.91.07c6.25,0,12.5.17,18.74-.06,3.18-.12,4,1,4,4.06-.1,30.61-.06,61.22-.06,91.84q0,30.36,0,60.72Z"/>
    <path class="cls-1" d="M188.41,105c1.06,9.12,1.58,17.71,3.17,26.11,1.54,8.12,7.51,12.61,15.16,15,13.47,4.28,26.63,2.56,39.62-2,3.88-1.36,7.63-3.08,11.46-4.58,1.19-.47,2.45-.77,4.81-1.49-1.16,1.82-1.57,2.68-2.16,3.38-26.29,31.17-80.72,29-104.88-3.95C139,115,142.69,75.41,176.8,59.74c24-11,48.28-11.11,71.22,3.31,13.91,8.74,20.57,22.31,22.48,38.41.38,3.2-1.28,3.48-3.73,3.47-13.37,0-26.74,0-40.11.06C214.31,105,202,105,188.41,105Zm.71-4.42,36.51-1.28c3.37-.11,5.11-1.57,4.56-5.19-.37-2.47-.42-5-.8-7.44-1.2-7.8-2.64-15.55-7.46-22.12-4.44-6.06-12-8.25-18.19-4.44a24.74,24.74,0,0,0-8.31,8.76C190.17,78.51,189.63,89.29,189.12,100.57Z"/>
    <path class="cls-1" d="M282.09,65.63a134.46,134.46,0,0,0,44.59-11.26V82.88l.72.14c1.36-3.26,2.54-6.6,4.09-9.75,4.95-10,11.62-18.06,23.56-19.88S377.52,59,379.43,70.71c1.84,11.39-5.7,21.17-17.81,23.05-1.71.27-3.43.43-5.3.66a62.71,62.71,0,0,0-.93-7.17c-1.32-5.35-4.53-9.24-10-10.59-5.31-1.3-9.6,1-12.82,5.08A25.46,25.46,0,0,0,326.8,98c.08,13.87,0,27.74,0,41.62a49.87,49.87,0,0,1-.41,6.34c-1.22,9.38-6.6,14.71-16,15.23-6.85.38-13.74.17-20.61.2a19.76,19.76,0,0,1-2.35-.34v-4.4q0-35.8,0-71.61C287.42,78.19,288.35,71.09,282.09,65.63Z"/>
  </symbol>

  <symbol id="isotype" viewBox="0 0 129.68 161.81">
    <path class="cls-1" d="M0,.64C2.62.45,5.21.14,7.8.1,12.92,0,18,.07,23.16.08c13.58,0,20.5,6.21,21.12,19.77.54,11.46.41,23,.57,34.44v4.87c0,14,1.18,15.84,14.28,20.94a21.75,21.75,0,0,1-2.62,1.48C47.57,85,45,88.5,44.88,98c-.09,12.11,0,24.23-.07,36.34a65.3,65.3,0,0,1-.87,11.17c-1.79,9.64-7.2,14.87-17,15.47-9,.55-18,.14-26.94.15Z"/>
    <path class="cls-1" d="M129.59,161.81c-10.37-.45-20.26-.28-30-1.47-8.66-1.06-13.81-8.08-14.08-18.16-.37-13.73-.28-27.48-.21-41.22,0-9.47-3.32-16.51-12.82-19.65a3.24,3.24,0,0,1-1-.54c-.16-.13-.18-.42-.28-.67,2.45-1.33,5.11-2.39,7.3-4,5.61-4.27,6.74-10.46,6.74-17.07,0-12.49.09-25,.14-37.48a12.29,12.29,0,0,1,.06-1.49c1.07-13.92,7.59-20,21.5-20,6.25,0,12.5.17,18.74-.06,3.18-.12,4,1,4,4.06-.1,30.61-.06,61.22-.06,91.84v60.72Z"/>
  </symbol>

  <symbol id="facebook" viewBox="0 0 239.15 239.16">
    <path d="M0,230V9L9,0H230c6.65,3.56,9.14,8.86,9.11,16.61-.25,68.7-.15,137.4-.15,206.1,0,11.88-4.34,16.29-16,16.29H165.13V146.25h30.73c1.54-12,3-23.6,4.58-35.78H164.81c0-8.11-.05-15.72,0-23.33.1-12.64,4.88-17.37,17.55-17.43,6.27,0,12.53,0,19.28,0,0-9.64-.15-18.73.08-27.81.09-3.52-1.34-4.71-4.54-4.82-7.63-.26-15.24-.81-22.87-.88-22.49-.23-39,11.18-44.29,31.11-1.6,6-2,12.42-2.3,18.67-.38,8-.09,16.13-.09,24.69H97v36h30.35V239h-5.68c-35,0-70-.19-105,.15C8.86,239.23,3.56,236.69,0,230Z"/>
  </symbol>

  <symbol id="github" viewBox="0 0 14.33 15.35">
    <path d="M10.67,15.33a.67.67,0,0,1-.67-.66V12.09a1.6,1.6,0,0,0-.09-.71,1.47,1.47,0,0,0-.35-.57A.67.67,0,0,1,10,9.68c1.92-.21,3.7-.84,3.7-4a2.93,2.93,0,0,0-.82-2A.65.65,0,0,1,12.71,3a2.73,2.73,0,0,0,.09-1.6A5.37,5.37,0,0,0,11,2.21a.71.71,0,0,1-.55.09,8.08,8.08,0,0,0-4.31,0,.71.71,0,0,1-.55-.09,5.33,5.33,0,0,0-1.77-.86A2.74,2.74,0,0,0,4,3a.67.67,0,0,1-.14.69A3,3,0,0,0,3,5.7c0,3.11,1.78,3.77,3.71,4a.68.68,0,0,1,.55.43.69.69,0,0,1-.15.69,1.43,1.43,0,0,0-.35.56,1.45,1.45,0,0,0-.09.65v2.63a.67.67,0,0,1-1.34,0V13.5A3.3,3.3,0,0,1,1.88,12c-.26-.33-.48-.61-.71-.67a.66.66,0,0,1-.48-.81A.67.67,0,0,1,1.5,10a2.73,2.73,0,0,1,1.43,1.14,2,2,0,0,0,2.4,1v-.06a3,3,0,0,1,.17-1.16l0-.07C3.65,10.43,1.67,9.28,1.67,5.7A4.22,4.22,0,0,1,2.59,3,4,4,0,0,1,2.78.4.65.65,0,0,1,3.2,0C3.45,0,4.35-.18,6.12.94a9.48,9.48,0,0,1,4.43,0C12.31-.18,13.22,0,13.46,0a.66.66,0,0,1,.43.37A4.1,4.1,0,0,1,14.08,3,4.22,4.22,0,0,1,15,5.68c0,3.78-2.3,4.83-3.86,5.17l0,.07a3,3,0,0,1,.16,1.22v2.53A.67.67,0,0,1,10.67,15.33Z" transform="translate(-0.67 0.02)"/>
  </symbol>

  <symbol id="instagram" viewBox="0 0 14.67 14.67">
    <path d="M11.33,15.33H4.67a4,4,0,0,1-4-4V4.67a4,4,0,0,1,4-4h6.66a4,4,0,0,1,4,4v6.66A4,4,0,0,1,11.33,15.33ZM4.67,2A2.68,2.68,0,0,0,2,4.67v6.66A2.68,2.68,0,0,0,4.67,14h6.66A2.68,2.68,0,0,0,14,11.33V4.67A2.68,2.68,0,0,0,11.33,2Z" transform="translate(-0.67 -0.67)"/><path d="M8,11.3a3.31,3.31,0,0,1-3.3-2.8,3.31,3.31,0,0,1,.31-2,3.33,3.33,0,0,1,3.47-1.8,3.33,3.33,0,0,1,2.81,2.81h0A3.32,3.32,0,0,1,8,11.3ZM8,6a2,2,0,0,0-.92.23,1.93,1.93,0,0,0-.87.87,2.05,2.05,0,0,0-.19,1.22A2,2,0,0,0,7.71,10a2.05,2.05,0,0,0,1.22-.19,1.93,1.93,0,0,0,.87-.87A2,2,0,0,0,10,7.68a2,2,0,0,0-.57-1.12A2.08,2.08,0,0,0,8.32,6Z" transform="translate(-0.67 -0.67)"/><path d="M11.67,5A.68.68,0,0,1,11,4.33a.67.67,0,0,1,.67-.66h0a.67.67,0,1,1,0,1.33Z" transform="translate(-0.67 -0.67)"/>
  </symbol>

  <symbol id="caret-sort" viewBox="0 0 8 16">
    <path d="M8,12,4,16,0,12ZM0,4,4,0,8,4Z"/>
  </symbol>

  <symbol id='star' viewBox="0 0 33.92 32.37">
    <path d="M17.93.6l4.41,8.92a1.07,1.07,0,0,0,.81.6L33,11.55a1.08,1.08,0,0,1,.6,1.84l-7.13,7a1.1,1.1,0,0,0-.31,1l1.68,9.8a1.08,1.08,0,0,1-1.57,1.14l-8.8-4.63a1.12,1.12,0,0,0-1,0L7.65,32.24A1.08,1.08,0,0,1,6.08,31.1l1.68-9.8a1.07,1.07,0,0,0-.31-1L.33,13.39a1.08,1.08,0,0,1,.6-1.84l9.84-1.43a1.09,1.09,0,0,0,.82-.6L16,.6A1.08,1.08,0,0,1,17.93.6Z"/>
  </symbol>

  <symbol id='chevron-right' viewBox="0 0 4.18 7.31">
    <path d="M.52,7.31a.53.53,0,0,1-.37-.15.53.53,0,0,1,0-.74L2.92,3.66.15.89a.53.53,0,0,1,0-.74.53.53,0,0,1,.74,0L4,3.29A.53.53,0,0,1,4,4L.89,7.16A.51.51,0,0,1,.52,7.31Z"/>
  </symbol>

  <symbol id='more-vertical' viewBox="0 0 4 18">
    <circle cx="2" cy="9" r="2"/><circle cx="2" cy="2" r="2"/><circle cx="2" cy="16" r="2"/>
  </symbol>
</svg>